<svg viewBox="0 0 401 298" fill="none" xmlns="http://www.w3.org/2000/svg">
<path fill-rule="evenodd" clip-rule="evenodd" d="M48.2241 208.733C12.693 186.748 2.00009 153.978 2.00009 118.861C2.00009 75.6523 33.3342 37.8004 85.0806 16.6952C110.179 6.45853 139.668 2 173.549 2C277.285 2 371.125 48.2452 367.041 125.854C364.54 173.393 352.192 191.289 319.413 211.31C341.142 238.242 369.056 269.192 399 295.571C397.395 294.405 394.409 292.35 390.234 289.477C373.848 278.201 339.161 254.332 297.951 222.229C276.484 230.773 250.042 235.044 217.732 235.044C144.206 241.935 83.7821 230.734 48.2241 208.733Z" fill="white"/>
<path d="M48.2241 208.733L49.0133 207.457L48.2241 208.733ZM85.0806 16.6952L84.5142 15.3063L85.0806 16.6952ZM367.041 125.854L365.543 125.775L367.041 125.854ZM319.413 211.31L318.245 212.252C317.974 211.915 317.861 211.479 317.935 211.053C318.009 210.628 318.262 210.255 318.631 210.03L319.413 211.31ZM399 295.571L399.992 294.446C400.593 294.975 400.672 295.884 400.171 296.509C399.67 297.134 398.766 297.255 398.118 296.784L399 295.571ZM390.234 289.477L389.384 290.713L390.234 289.477ZM297.951 222.229L297.396 220.835C297.891 220.638 298.453 220.718 298.873 221.045L297.951 222.229ZM217.732 235.044L217.592 233.55C217.639 233.546 217.686 233.544 217.732 233.544V235.044ZM0.549316 115.874C0.57666 115.046 1.27002 114.397 2.09799 114.425C2.92596 114.452 3.57501 115.145 3.54767 115.973L0.549316 115.874ZM3.83902 111.177C3.7659 112.002 3.03763 112.612 2.21243 112.538C1.38727 112.465 0.777588 111.737 0.850739 110.912L3.83902 111.177ZM1.57632 104.987C1.7045 104.168 2.47186 103.608 3.29031 103.737C4.10876 103.865 4.66837 104.632 4.54022 105.451L1.57632 104.987ZM5.41574 100.725C5.24225 101.535 4.44492 102.051 3.63486 101.877C2.8248 101.704 2.30878 100.906 2.4823 100.096L5.41574 100.725ZM3.92511 94.3062C4.15189 93.5094 4.98166 93.0474 5.77844 93.2741C6.57523 93.5009 7.03729 94.3307 6.81052 95.1275L3.92511 94.3062ZM8.25244 90.5407C7.98264 91.324 7.12897 91.7402 6.3457 91.4704C5.56244 91.2006 5.14621 90.3469 5.41602 89.5637L8.25244 90.5407ZM7.53876 83.9895C7.85809 83.2251 8.73666 82.8643 9.50107 83.1837C10.2655 83.503 10.6263 84.3816 10.3069 85.146L7.53876 83.9895ZM12.2777 80.7545C11.9191 81.5013 11.023 81.8159 10.2762 81.4573C9.52942 81.0987 9.21475 80.2026 9.57339 79.4558L12.2777 80.7545ZM12.3138 74.1676C12.7169 73.4438 13.6304 73.1839 14.3542 73.587C15.0779 73.9901 15.3379 74.9035 14.9348 75.6273L12.3138 74.1676ZM17.3813 71.4768C16.9435 72.1801 16.0184 72.3953 15.3152 71.9575C14.6119 71.5196 14.3967 70.5946 14.8345 69.8913L17.3813 71.4768ZM18.1236 64.9274C18.6003 64.2499 19.5359 64.0871 20.2135 64.5637C20.891 65.0404 21.0539 65.9761 20.5771 66.6537L18.1236 64.9274ZM23.4397 62.7747C22.933 63.4301 21.991 63.5506 21.3356 63.0439C20.6802 62.5373 20.5596 61.5952 21.0663 60.9398L23.4397 62.7747ZM24.8243 56.3323C25.3642 55.704 26.3112 55.6324 26.9396 56.1723C27.5679 56.7123 27.6395 57.6593 27.0996 58.2876L24.8243 56.3323ZM30.3232 54.6906C29.7578 55.296 28.8086 55.3285 28.2031 54.763C27.5977 54.1976 27.5652 53.2484 28.1307 52.6429L30.3232 54.6906ZM32.2879 48.3996C32.8814 47.8217 33.8311 47.8343 34.409 48.4278C34.987 49.0213 34.9743 49.971 34.3808 50.5489L32.2879 48.3996ZM37.9063 47.2442C37.2914 47.7993 36.3429 47.7508 35.7878 47.1359C35.2327 46.5209 35.2812 45.5724 35.8961 45.0173L37.9063 47.2442ZM40.3853 41.1395C41.0238 40.6116 41.9693 40.7012 42.4972 41.3397C43.0251 41.9781 42.9355 42.9236 42.2971 43.4515L40.3853 41.1395ZM46.0796 40.4332C45.4232 40.9387 44.4814 40.8164 43.9759 40.1601C43.4704 39.5038 43.5927 38.562 44.249 38.0564L46.0796 40.4332ZM49.0209 34.5311C49.6968 34.0521 50.6331 34.2117 51.1121 34.8876C51.5911 35.5635 51.4315 36.4998 50.7556 36.9788L49.0209 34.5311ZM54.7522 34.2413C54.0614 34.6986 53.1307 34.5094 52.6734 33.8186C52.2161 33.1278 52.4053 32.1971 53.0961 31.7398L54.7522 34.2413ZM58.0925 28.5627C58.7995 28.1309 59.7227 28.354 60.1545 29.061C60.5862 29.768 60.3631 30.6912 59.6561 31.123L58.0925 28.5627ZM63.8293 28.6579C63.11 29.0688 62.1937 28.8188 61.7828 28.0995C61.3718 27.3802 61.6218 26.4639 62.3411 26.053L63.8293 28.6579ZM67.5273 23.2057C68.2601 22.8193 69.1674 23.1 69.5539 23.8327C69.9403 24.5655 69.6596 25.4728 68.9269 25.8593L67.5273 23.2057ZM73.2476 23.6549C72.5046 24.0215 71.6053 23.7163 71.2387 22.9734C70.8722 22.2305 71.1773 21.3311 71.9202 20.9645L73.2476 23.6549ZM77.265 18.4312C78.0191 18.0881 78.9085 18.4211 79.2516 19.1752C79.5948 19.9292 79.2617 20.8186 78.5078 21.1618L77.265 18.4312ZM82.9501 19.2073C82.1877 19.5314 81.3069 19.1761 80.9828 18.4137C80.6587 17.6514 81.014 16.7706 81.7764 16.4464L82.9501 19.2073ZM87.3999 14.1619C88.1729 13.8639 89.041 14.249 89.339 15.022C89.637 15.7949 89.2519 16.6631 88.4789 16.9611L87.3999 14.1619ZM93.2473 15.2086C92.4654 15.4823 91.6096 15.0703 91.3359 14.2884C91.0623 13.5065 91.4742 12.6507 92.2562 12.377L93.2473 15.2086ZM98.1492 10.4329C98.9404 10.1874 99.7808 10.6297 100.026 11.4209C100.272 12.2121 99.8296 13.0526 99.0384 13.2981L98.1492 10.4329ZM103.915 11.8606C103.118 12.0836 102.29 11.6176 102.067 10.8198C101.844 10.022 102.31 9.19439 103.108 8.97137L103.915 11.8606ZM109.107 7.39948C109.912 7.20235 110.724 7.69484 110.921 8.49947C111.118 9.3041 110.626 10.1162 109.821 10.3133L109.107 7.39948ZM114.778 9.16616C113.969 9.34271 113.17 8.82969 112.993 8.02029C112.817 7.2109 113.33 6.41163 114.139 6.23508L114.778 9.16616ZM120.213 5.0029C121.027 4.84984 121.811 5.38577 121.964 6.19993C122.117 7.0141 121.581 7.79819 120.767 7.95125L120.213 5.0029ZM125.782 7.06795C124.964 7.20245 124.193 6.64883 124.058 5.83139C123.924 5.01396 124.477 4.24226 125.295 4.10775L125.782 7.06795ZM131.418 3.18192C132.238 3.06851 132.996 3.64183 133.109 4.46245C133.222 5.28308 132.649 6.04027 131.828 6.15368L131.418 3.18192ZM136.882 5.50768C136.06 5.60448 135.314 5.01597 135.217 4.19322C135.121 3.37047 135.709 2.62502 136.532 2.52823L136.882 5.50768ZM142.685 1.87627C143.51 1.79831 144.242 2.4037 144.32 3.22845C144.398 4.0532 143.792 4.785 142.968 4.86296L142.685 1.87627ZM148.048 4.42907C147.222 4.49224 146.501 3.87382 146.438 3.04781C146.375 2.22179 146.993 1.50097 147.819 1.4378L148.048 4.42907ZM153.989 1.02952C154.816 0.983106 155.524 1.616 155.57 2.44312C155.617 3.27025 154.984 3.97839 154.157 4.02481L153.989 1.02952ZM159.254 3.77977C158.426 3.81304 157.728 3.16897 157.695 2.34121C157.662 1.51345 158.306 0.815455 159.133 0.782192L159.254 3.77977ZM165.31 0.59014C166.138 0.57175 166.825 1.22825 166.843 2.05647C166.861 2.8847 166.205 3.57101 165.377 3.5894L165.31 0.59014ZM170.485 3.51234C169.656 3.51905 168.979 2.85294 168.973 2.02454C168.966 1.19614 169.632 0.519147 170.461 0.512438L170.485 3.51234ZM176.599 0.513279C177.428 0.520496 178.093 1.19789 178.086 2.02629C178.079 2.85469 177.402 3.52038 176.573 3.51317L176.599 0.513279ZM181.599 3.59346C180.771 3.5742 180.115 2.88719 180.134 2.05899C180.153 1.23079 180.84 0.575007 181.669 0.594267L181.599 3.59346ZM187.757 0.789343C188.584 0.823163 189.228 1.52159 189.194 2.34933C189.16 3.17707 188.462 3.82066 187.634 3.78684L187.757 0.789343ZM192.648 4.02869C191.821 3.98267 191.188 3.27483 191.234 2.44768C191.28 1.62053 191.988 0.987301 192.815 1.03332L192.648 4.02869ZM198.898 1.42635C199.725 1.48718 200.345 2.20625 200.284 3.03244C200.223 3.85863 199.504 4.47908 198.678 4.41825L198.898 1.42635ZM203.686 4.8248C202.86 4.75153 202.251 4.0232 202.324 3.19802C202.397 2.37284 203.126 1.76329 203.951 1.83656L203.686 4.8248ZM210.012 2.43061C210.835 2.519 211.431 3.25839 211.343 4.08209C211.255 4.90579 210.515 5.50188 209.691 5.41349L210.012 2.43061ZM214.689 5.98888C213.867 5.88773 213.282 5.13918 213.383 4.31695C213.484 3.49472 214.233 2.91017 215.055 3.01133L214.689 5.98888ZM221.082 3.81042C221.902 3.92709 222.472 4.68654 222.356 5.50671C222.239 6.32688 221.479 6.89719 220.659 6.78053L221.082 3.81042ZM225.641 7.53C224.823 7.40015 224.265 6.63162 224.395 5.81343C224.525 4.99524 225.293 4.43723 226.111 4.56707L225.641 7.53ZM232.111 5.5795C232.927 5.72538 233.47 6.50472 233.324 7.3202C233.178 8.13569 232.399 8.6785 231.583 8.53262L232.111 5.5795ZM236.526 9.45941C235.713 9.29989 235.183 8.51157 235.342 7.69864C235.502 6.88572 236.29 6.35603 237.103 6.51556L236.526 9.45941ZM243.071 7.75028C243.881 7.9265 244.394 8.72555 244.218 9.53502C244.041 10.3445 243.242 10.8578 242.433 10.6816L243.071 7.75028ZM247.321 11.7907C246.515 11.6003 246.016 10.7923 246.206 9.98608C246.397 9.17983 247.205 8.68059 248.011 8.87099L247.321 11.7907ZM253.937 10.3383C254.739 10.5462 255.22 11.3649 255.013 12.1668C254.805 12.9687 253.986 13.4502 253.184 13.2423L253.937 10.3383ZM258.03 14.5466C257.232 14.3238 256.766 13.4963 256.988 12.6984C257.211 11.9005 258.039 11.4343 258.836 11.6571L258.03 14.5466ZM264.684 13.3625C265.477 13.6037 265.924 14.4416 265.683 15.2342C265.442 16.0267 264.604 16.4737 263.811 16.2326L264.684 13.3625ZM268.609 17.7448C267.822 17.4879 267.392 16.6411 267.649 15.8535C267.905 15.066 268.752 14.6358 269.54 14.8927L268.609 17.7448ZM275.306 16.8525C276.087 17.1289 276.496 17.986 276.22 18.767C275.943 19.548 275.086 19.9571 274.305 19.6807L275.306 16.8525ZM279.021 21.4061C278.246 21.1131 277.855 20.2473 278.149 19.4725C278.442 18.6976 279.307 18.307 280.082 18.6001L279.021 21.4061ZM285.764 20.8361C286.531 21.1499 286.898 22.0258 286.584 22.7925C286.271 23.5592 285.395 23.9264 284.628 23.6126L285.764 20.8361ZM289.236 25.5608C288.477 25.2293 288.13 24.3451 288.462 23.5859C288.793 22.8267 289.677 22.48 290.436 22.8115L289.236 25.5608ZM295.999 25.3378C296.748 25.6914 297.069 26.5854 296.715 27.3346C296.362 28.0837 295.468 28.4043 294.719 28.0506L295.999 25.3378ZM299.23 30.2514C298.491 29.8786 298.193 28.9767 298.566 28.2369C298.939 27.4971 299.841 27.1995 300.58 27.5723L299.23 30.2514ZM305.985 30.4051C306.713 30.8016 306.981 31.7126 306.585 32.44C306.188 33.1674 305.277 33.4357 304.55 33.0392L305.985 30.4051ZM308.911 35.4964C308.195 35.0794 307.952 34.1611 308.369 33.4453C308.786 32.7294 309.705 32.4871 310.421 32.904L308.911 35.4964ZM315.655 36.0789C316.356 36.5213 316.565 37.4478 316.122 38.1482C315.68 38.8486 314.754 39.0577 314.053 38.6153L315.655 36.0789ZM318.238 41.3515C317.552 40.8872 317.372 39.9546 317.837 39.2685C318.301 38.5825 319.234 38.4027 319.92 38.867L318.238 41.3515ZM324.911 42.3919C325.578 42.8834 325.721 43.8225 325.229 44.4893C324.738 45.1562 323.798 45.2984 323.132 44.8069L324.911 42.3919ZM327.108 47.847C326.459 47.3321 326.35 46.3886 326.865 45.7396C327.38 45.0906 328.323 44.9819 328.972 45.4968L327.108 47.847ZM333.69 49.4146C334.315 49.9583 334.381 50.9058 333.837 51.5308C333.293 52.1558 332.346 52.2217 331.721 51.678L333.69 49.4146ZM335.417 55.0249C334.815 54.4566 334.787 53.5073 335.355 52.9045C335.923 52.3017 336.873 52.2737 337.475 52.8419L335.417 55.0249ZM341.829 57.1579C342.402 57.7561 342.382 58.7056 341.783 59.2787C341.185 59.8519 340.236 59.8316 339.663 59.2334L341.829 57.1579ZM343.03 62.9081C342.484 62.2848 342.547 61.3372 343.17 60.7915C343.794 60.2458 344.741 60.3088 345.287 60.9321L343.03 62.9081ZM349.205 65.6711C349.714 66.3245 349.597 67.267 348.943 67.7763C348.29 68.2855 347.347 68.1686 346.838 67.5151L349.205 65.6711ZM349.798 71.5145C349.322 70.8363 349.486 69.9008 350.164 69.425C350.842 68.9491 351.778 69.1131 352.254 69.7912L349.798 71.5145ZM355.628 74.9348C356.06 75.6416 355.838 76.5649 355.131 76.9971C354.424 77.4292 353.501 77.2066 353.069 76.4999L355.628 74.9348ZM355.542 80.8033C355.149 80.0739 355.422 79.1642 356.151 78.7714C356.881 78.3786 357.79 78.6515 358.183 79.3808L355.542 80.8033ZM360.919 84.9018C361.261 85.6563 360.927 86.5453 360.172 86.8875C359.418 87.2296 358.529 86.8954 358.187 86.1409L360.919 84.9018ZM360.104 90.7182C359.806 89.945 360.192 89.0771 360.965 88.7796C361.738 88.482 362.606 88.8676 362.904 89.6408L360.104 90.7182ZM364.911 95.4684C365.153 96.2608 364.706 97.0991 363.914 97.3407C363.122 97.5824 362.283 97.1359 362.042 96.3435L364.911 95.4684ZM363.345 101.126C363.151 100.32 363.647 99.5105 364.453 99.3168C365.258 99.123 366.068 99.6189 366.262 100.424L363.345 101.126ZM367.487 106.467C367.623 107.285 367.07 108.057 366.253 108.192C365.436 108.328 364.663 107.775 364.528 106.958L367.487 106.467ZM365.195 111.885C365.108 111.061 365.705 110.323 366.529 110.236C367.353 110.149 368.091 110.747 368.178 111.57L365.195 111.885ZM368.611 117.711C368.641 118.539 367.994 119.235 367.166 119.264C366.338 119.294 365.643 118.647 365.613 117.819L368.611 117.711ZM365.652 122.772C365.669 121.943 366.353 121.285 367.182 121.301C368.01 121.318 368.668 122.003 368.652 122.831L365.652 122.772ZM368.356 129.092C368.303 129.919 367.59 130.547 366.763 130.494C365.937 130.441 365.309 129.728 365.362 128.901L368.356 129.092ZM364.98 134.063C365.05 133.237 365.776 132.625 366.601 132.695C367.427 132.765 368.039 133.491 367.969 134.316L364.98 134.063ZM367.343 140.608C367.248 141.431 366.504 142.021 365.681 141.926C364.858 141.831 364.268 141.087 364.363 140.264L367.343 140.608ZM363.695 145.384C363.815 144.564 364.577 143.997 365.396 144.117C366.216 144.237 366.783 144.998 366.663 145.818L363.695 145.384ZM365.614 152.066C365.458 152.88 364.672 153.413 363.858 153.257C363.045 153.102 362.511 152.316 362.667 151.502L365.614 152.066ZM361.592 156.534C361.784 155.728 362.592 155.229 363.398 155.42C364.204 155.612 364.703 156.42 364.511 157.226L361.592 156.534ZM362.858 163.361C362.617 164.153 361.779 164.6 360.986 164.359C360.194 164.118 359.747 163.279 359.988 162.487L362.858 163.361ZM358.348 167.349C358.637 166.573 359.501 166.178 360.277 166.467C361.054 166.756 361.449 167.619 361.16 168.396L358.348 167.349ZM358.691 174.281C358.338 175.031 357.445 175.353 356.695 175.001C355.946 174.648 355.624 173.755 355.976 173.005L358.691 174.281ZM353.632 177.541C354.04 176.82 354.956 176.566 355.676 176.975C356.397 177.383 356.651 178.298 356.243 179.019L353.632 177.541ZM352.832 184.434C352.358 185.113 351.423 185.28 350.743 184.806C350.064 184.332 349.897 183.397 350.372 182.717L352.832 184.434ZM347.292 186.785C347.817 186.144 348.762 186.05 349.403 186.575C350.043 187.1 350.137 188.045 349.613 188.686L347.292 186.785ZM345.353 193.448C344.776 194.042 343.826 194.055 343.232 193.477C342.639 192.9 342.625 191.95 343.203 191.356L345.353 193.448ZM339.514 194.913C340.128 194.357 341.076 194.403 341.633 195.017C342.189 195.631 342.143 196.579 341.529 197.136L339.514 194.913ZM336.681 201.251C336.034 201.768 335.09 201.662 334.573 201.014C334.057 200.366 334.163 199.423 334.811 198.906L336.681 201.251ZM330.717 202.025C331.387 201.536 332.325 201.683 332.813 202.352C333.301 203.022 333.155 203.96 332.485 204.448L330.717 202.025ZM327.298 208.063C326.609 208.524 325.678 208.338 325.218 207.649C324.757 206.96 324.943 206.029 325.632 205.569L327.298 208.063ZM321.28 208.387C321.981 207.946 322.907 208.157 323.349 208.858C323.79 209.559 323.579 210.485 322.878 210.926L321.28 208.387ZM322.386 212.598C322.909 213.241 322.811 214.185 322.168 214.708C321.525 215.23 320.581 215.133 320.058 214.49L322.386 212.598ZM323.098 218.207C322.572 217.568 322.664 216.622 323.303 216.096C323.943 215.569 324.888 215.661 325.415 216.301L323.098 218.207ZM329.082 220.725C329.613 221.361 329.528 222.307 328.893 222.838C328.257 223.369 327.311 223.284 326.78 222.648L329.082 220.725ZM329.868 226.323C329.333 225.691 329.412 224.744 330.045 224.21C330.678 223.675 331.624 223.754 332.159 224.387L329.868 226.323ZM335.884 228.761C336.424 229.39 336.351 230.337 335.722 230.876C335.094 231.416 334.147 231.343 333.607 230.715L335.884 228.761ZM336.745 234.35C336.201 233.724 336.268 232.777 336.894 232.234C337.519 231.691 338.467 231.757 339.01 232.383L336.745 234.35ZM342.793 236.707C343.34 237.329 343.281 238.277 342.659 238.824C342.038 239.372 341.09 239.312 340.542 238.691L342.793 236.707ZM343.728 242.284C343.177 241.666 343.231 240.718 343.849 240.166C344.467 239.615 345.415 239.668 345.967 240.287L343.728 242.284ZM349.808 244.559C350.364 245.173 350.317 246.122 349.703 246.678C349.089 247.234 348.141 247.187 347.585 246.573L349.808 244.559ZM350.82 250.122C350.26 249.512 350.301 248.563 350.911 248.003C351.522 247.443 352.471 247.484 353.031 248.094L350.82 250.122ZM356.93 252.311C357.495 252.917 357.461 253.866 356.855 254.431C356.249 254.996 355.3 254.962 354.735 254.356L356.93 252.311ZM358.023 257.86C357.454 257.258 357.481 256.309 358.083 255.74C358.686 255.171 359.635 255.198 360.204 255.801L358.023 257.86ZM364.163 259.959C364.737 260.556 364.718 261.506 364.12 262.08C363.522 262.653 362.573 262.634 361.999 262.036L364.163 259.959ZM365.34 265.492C364.762 264.899 364.775 263.949 365.368 263.371C365.962 262.793 366.911 262.806 367.489 263.4L365.34 265.492ZM371.511 267.496C372.094 268.084 372.089 269.034 371.501 269.617C370.912 270.2 369.962 270.195 369.379 269.607L371.511 267.496ZM372.774 273.009C372.187 272.425 372.184 271.475 372.769 270.888C373.353 270.301 374.303 270.298 374.89 270.883L372.774 273.009ZM378.978 274.913C379.57 275.492 379.581 276.442 379.002 277.034C378.423 277.627 377.474 277.638 376.881 277.059L378.978 274.913ZM380.333 280.405C379.736 279.83 379.717 278.881 380.291 278.284C380.866 277.687 381.815 277.668 382.412 278.242L380.333 280.405ZM386.569 282.2C387.171 282.769 387.199 283.718 386.631 284.321C386.062 284.924 385.113 284.951 384.51 284.383L386.569 282.2ZM388.022 287.667C387.415 287.104 387.379 286.155 387.942 285.547C388.505 284.94 389.454 284.904 390.062 285.467L388.022 287.667ZM394.29 289.346C394.903 289.903 394.949 290.851 394.392 291.465C393.836 292.078 392.887 292.124 392.273 291.567L394.29 289.346ZM395.849 294.783C395.231 294.232 395.176 293.284 395.727 292.666C396.278 292.047 397.227 291.993 397.845 292.544L395.849 294.783ZM395.765 295.119C395.086 294.645 394.919 293.71 395.393 293.031C395.867 292.351 396.802 292.185 397.482 292.659L395.765 295.119ZM393.484 289.893C394.167 290.363 394.339 291.297 393.869 291.98C393.399 292.662 392.465 292.834 391.783 292.364L393.484 289.893ZM386.831 288.956C386.148 288.486 385.976 287.552 386.446 286.869C386.916 286.187 387.85 286.015 388.532 286.485L386.831 288.956ZM384.251 283.532C384.933 284.003 385.104 284.938 384.633 285.619C384.162 286.301 383.228 286.472 382.546 286.001L384.251 283.532ZM377.43 282.457C376.75 281.985 376.581 281.05 377.054 280.369C377.526 279.689 378.461 279.521 379.142 279.993L377.43 282.457ZM374.882 277.027C375.562 277.502 375.728 278.437 375.254 279.116C374.779 279.795 373.844 279.961 373.165 279.487L374.882 277.027ZM368.06 275.911C367.382 275.435 367.219 274.5 367.695 273.822C368.171 273.144 369.107 272.981 369.785 273.457L368.06 275.911ZM365.535 270.462C366.211 270.94 366.372 271.876 365.894 272.553C365.416 273.229 364.48 273.39 363.803 272.912L365.535 270.462ZM358.722 269.309C358.047 268.829 357.89 267.892 358.37 267.217C358.85 266.542 359.787 266.385 360.462 266.865L358.722 269.309ZM356.243 263.855C356.917 264.337 357.072 265.274 356.59 265.947C356.108 266.621 355.171 266.776 354.497 266.294L356.243 263.855ZM349.426 262.652C348.754 262.168 348.602 261.23 349.086 260.558C349.571 259.886 350.508 259.734 351.18 260.218L349.426 262.652ZM346.984 257.185C347.655 257.671 347.804 258.609 347.318 259.28C346.832 259.951 345.894 260.1 345.223 259.614L346.984 257.185ZM340.175 255.941C339.505 255.452 339.359 254.514 339.848 253.845C340.336 253.175 341.275 253.029 341.944 253.518L340.175 255.941ZM337.764 250.456C338.432 250.947 338.575 251.886 338.085 252.553C337.594 253.221 336.655 253.365 335.988 252.874L337.764 250.456ZM330.97 249.175C330.304 248.682 330.164 247.743 330.657 247.077C331.149 246.411 332.089 246.27 332.755 246.763L330.97 249.175ZM328.585 243.669C329.25 244.163 329.387 245.103 328.893 245.768C328.398 246.432 327.458 246.57 326.794 246.075L328.585 243.669ZM321.804 242.347C321.141 241.85 321.007 240.909 321.504 240.247C322.001 239.584 322.941 239.449 323.604 239.947L321.804 242.347ZM319.46 236.829C320.121 237.328 320.253 238.268 319.754 238.93C319.255 239.591 318.314 239.722 317.653 239.223L319.46 236.829ZM312.679 235.456C312.02 234.954 311.892 234.013 312.393 233.354C312.894 232.694 313.835 232.566 314.495 233.068L312.679 235.456ZM310.368 229.92C311.026 230.424 311.152 231.365 310.648 232.023C310.145 232.681 309.203 232.806 308.545 232.303L310.368 229.92ZM303.605 228.508C302.949 228.003 302.827 227.061 303.333 226.405C303.839 225.749 304.781 225.627 305.437 226.133L303.605 228.508ZM301.335 222.96C301.989 223.468 302.108 224.41 301.6 225.064C301.092 225.719 300.15 225.838 299.496 225.33L301.335 222.96ZM295.505 224.777C294.728 225.066 293.865 224.671 293.576 223.894C293.287 223.118 293.682 222.254 294.459 221.965L295.505 224.777ZM289.503 223.707C290.289 223.446 291.138 223.872 291.399 224.659C291.659 225.445 291.233 226.294 290.447 226.554L289.503 223.707ZM284.306 228.45C283.51 228.679 282.679 228.219 282.451 227.422C282.222 226.626 282.682 225.795 283.479 225.567L284.306 228.45ZM278.4 226.937C279.203 226.734 280.019 227.22 280.222 228.023C280.425 228.826 279.939 229.642 279.136 229.845L278.4 226.937ZM272.887 231.309C272.078 231.484 271.28 230.969 271.105 230.16C270.93 229.35 271.444 228.552 272.254 228.377L272.887 231.309ZM267.092 229.417C267.906 229.265 268.69 229.801 268.843 230.615C268.996 231.429 268.459 232.213 267.645 232.366L267.092 229.417ZM261.326 233.451C260.507 233.579 259.74 233.019 259.612 232.201C259.484 231.382 260.044 230.615 260.862 230.487L261.326 233.451ZM255.646 231.239C256.467 231.13 257.221 231.708 257.33 232.529C257.438 233.351 256.861 234.104 256.039 234.213L255.646 231.239ZM249.676 234.968C248.852 235.055 248.114 234.458 248.027 233.634C247.94 232.81 248.537 232.072 249.361 231.985L249.676 234.968ZM244.11 232.484C244.935 232.414 245.661 233.026 245.731 233.852C245.801 234.677 245.189 235.403 244.364 235.473L244.11 232.484ZM237.978 235.941C237.151 235.993 236.439 235.364 236.388 234.537C236.337 233.71 236.965 232.998 237.792 232.947L237.978 235.941ZM232.52 233.226C233.347 233.19 234.048 233.831 234.084 234.659C234.121 235.486 233.48 236.187 232.652 236.224L232.52 233.226ZM226.26 236.442C225.432 236.462 224.744 235.807 224.724 234.979C224.704 234.15 225.359 233.463 226.187 233.443L226.26 236.442ZM220.904 233.53C221.732 233.522 222.41 234.188 222.417 235.016C222.424 235.845 221.759 236.522 220.93 236.53L220.904 233.53ZM214.895 236.807C214.07 236.879 213.342 236.269 213.27 235.444C213.198 234.618 213.808 233.891 214.633 233.818L214.895 236.807ZM209.721 234.223C210.547 234.159 211.268 234.777 211.332 235.603C211.395 236.429 210.777 237.15 209.952 237.214L209.721 234.223ZM204.012 237.635C203.186 237.688 202.472 237.061 202.419 236.234C202.366 235.407 202.993 234.694 203.819 234.641L204.012 237.635ZM198.888 234.932C199.715 234.888 200.422 235.522 200.466 236.349C200.51 237.177 199.876 237.883 199.048 237.928L198.888 234.932ZM193.094 238.208C192.266 238.241 191.568 237.598 191.534 236.77C191.501 235.942 192.145 235.244 192.972 235.21L193.094 238.208ZM188.042 235.382C188.87 235.358 189.561 236.01 189.585 236.838C189.609 237.666 188.958 238.357 188.129 238.381L188.042 235.382ZM182.172 238.515C181.343 238.528 180.661 237.866 180.649 237.038C180.636 236.21 181.297 235.528 182.125 235.515L182.172 238.515ZM177.199 235.563C178.028 235.56 178.702 236.229 178.705 237.057C178.708 237.885 178.039 238.56 177.211 238.563L177.199 235.563ZM171.252 238.543C170.424 238.534 169.759 237.855 169.768 237.027C169.777 236.199 170.455 235.534 171.284 235.543L171.252 238.543ZM166.348 235.46C167.176 235.479 167.832 236.166 167.813 236.994C167.794 237.823 167.108 238.479 166.279 238.46L166.348 235.46ZM160.319 238.278C159.491 238.247 158.845 237.55 158.877 236.722C158.908 235.894 159.605 235.249 160.433 235.28L160.319 238.278ZM155.504 235.06C156.332 235.103 156.968 235.808 156.926 236.635C156.883 237.462 156.178 238.099 155.351 238.057L155.504 235.06ZM149.398 237.704C148.571 237.648 147.946 236.933 148.002 236.107C148.057 235.28 148.773 234.655 149.599 234.711L149.398 237.704ZM144.684 234.346C145.509 234.413 146.124 235.137 146.057 235.962C145.99 236.788 145.266 237.403 144.441 237.336L144.684 234.346ZM138.499 236.802C137.675 236.721 137.072 235.987 137.154 235.162C137.235 234.338 137.969 233.736 138.793 233.817L138.499 236.802ZM133.895 233.298C134.718 233.391 135.31 234.134 135.216 234.957C135.123 235.78 134.38 236.372 133.557 236.278L133.895 233.298ZM127.633 235.551C126.812 235.442 126.234 234.688 126.343 233.867C126.451 233.046 127.205 232.468 128.027 232.577L127.633 235.551ZM123.151 231.892C123.97 232.014 124.536 232.777 124.414 233.596C124.292 234.416 123.529 234.981 122.71 234.86L123.151 231.892ZM116.812 233.923C115.996 233.785 115.445 233.011 115.584 232.194C115.722 231.377 116.496 230.827 117.313 230.965L116.812 233.923ZM112.467 230.103C113.281 230.255 113.818 231.039 113.666 231.853C113.513 232.667 112.73 233.204 111.915 233.051L112.467 230.103ZM106.055 231.889C105.244 231.719 104.725 230.923 104.895 230.113C105.065 229.302 105.86 228.783 106.671 228.953L106.055 231.889ZM101.865 227.896C102.673 228.082 103.177 228.887 102.991 229.694C102.805 230.502 102 231.006 101.193 230.82L101.865 227.896ZM95.384 229.411C94.5814 229.205 94.097 228.388 94.3022 227.586C94.5074 226.783 95.3244 226.299 96.127 226.504L95.384 229.411ZM91.3758 225.236C92.1738 225.458 92.6406 226.285 92.4183 227.083C92.1961 227.881 91.3689 228.348 90.5709 228.126L91.3758 225.236ZM84.8337 226.444C84.042 226.201 83.5978 225.361 83.8417 224.569C84.0855 223.778 84.925 223.334 85.7168 223.577L84.8337 226.444ZM81.0393 222.075C81.825 222.338 82.2487 223.188 81.9859 223.974C81.7231 224.759 80.8731 225.183 80.0875 224.92L81.0393 222.075ZM74.4493 222.938C73.6721 222.651 73.2747 221.788 73.5617 221.011C73.8486 220.234 74.7112 219.837 75.4884 220.124L74.4493 222.938ZM70.904 218.359C71.6729 218.668 72.0463 219.541 71.738 220.31C71.4297 221.079 70.5564 221.452 69.7875 221.144L70.904 218.359ZM64.2582 218.813C63.5008 218.477 63.1589 217.591 63.4945 216.834C63.83 216.077 64.7161 215.735 65.4735 216.07L64.2582 218.813ZM61.025 214.014C61.7712 214.374 62.0845 215.27 61.7247 216.017C61.3649 216.763 60.4683 217.076 59.722 216.716L61.025 214.014ZM54.3795 214.003C53.6491 213.612 53.3737 212.703 53.7645 211.973C54.1553 211.242 55.0643 210.967 55.7947 211.358L54.3795 214.003ZM51.5191 208.965C52.234 209.384 52.4744 210.302 52.0558 211.017C51.6374 211.732 50.7185 211.973 50.0036 211.554L51.5191 208.965ZM44.9539 208.43C44.2606 207.977 44.0661 207.047 44.5196 206.354C44.973 205.66 45.9026 205.466 46.596 205.919L44.9539 208.43ZM42.6771 203.234C43.3499 203.717 43.5037 204.654 43.0204 205.327C42.5372 206 41.6 206.154 40.9271 205.671L42.6771 203.234ZM36.2476 202.11C35.6027 201.59 35.5013 200.646 36.0213 200.001C36.5412 199.356 37.4855 199.255 38.1305 199.775L36.2476 202.11ZM34.5103 196.709C35.1291 197.26 35.1843 198.208 34.6335 198.827C34.0827 199.445 33.1346 199.5 32.5157 198.95L34.5103 196.709ZM28.2412 194.905C27.6574 194.317 27.6605 193.368 28.2482 192.784C28.8359 192.2 29.7857 192.203 30.3695 192.791L28.2412 194.905ZM27.1201 189.343C27.672 189.96 27.6186 190.909 27.0008 191.461C26.383 192.013 25.4348 191.959 24.8828 191.341L27.1201 189.343ZM21.104 186.824C20.5935 186.171 20.7087 185.229 21.3612 184.718C22.0137 184.208 22.9565 184.323 23.4669 184.976L21.104 186.824ZM20.6506 181.163C21.1242 181.843 20.9572 182.778 20.2776 183.252C19.5979 183.725 18.6629 183.558 18.1893 182.879L20.6506 181.163ZM14.9866 177.941C14.5591 177.231 14.7877 176.31 15.4973 175.882C16.2069 175.455 17.1287 175.683 17.5562 176.393L14.9866 177.941ZM15.2211 172.264C15.6091 172.996 15.3302 173.904 14.5982 174.292C13.8663 174.68 12.9584 174.401 12.5704 173.669L15.2211 172.264ZM9.98456 168.384C9.6445 167.629 9.9812 166.741 10.7366 166.401C11.492 166.061 12.3801 166.397 12.7202 167.153L9.98456 168.384ZM10.8859 162.776C11.1863 163.548 10.804 164.418 10.0319 164.718C9.25986 165.019 8.39047 164.636 8.09006 163.864L10.8859 162.776ZM6.12463 158.325C5.87079 157.537 6.30432 156.692 7.0929 156.438C7.88147 156.184 8.7265 156.618 8.98035 157.406L6.12463 158.325ZM7.63223 152.849C7.84857 153.648 7.3757 154.472 6.57602 154.688C5.77634 154.905 4.95267 154.432 4.73633 153.632L7.63223 152.849ZM3.35709 147.928C3.18369 147.118 3.6998 146.32 4.50986 146.147C5.31995 145.974 6.11722 146.49 6.29062 147.3L3.35709 147.928ZM5.39209 142.625C5.53171 143.442 4.98294 144.217 4.16635 144.356C3.34979 144.496 2.57465 143.947 2.43503 143.131L5.39209 142.625ZM1.58374 137.335C1.48215 136.513 2.06628 135.764 2.88846 135.662C3.71063 135.561 4.4595 136.145 4.5611 136.967L1.58374 137.335ZM4.06183 132.222C4.13394 133.048 3.52338 133.775 2.69809 133.847C1.8728 133.919 1.14532 133.309 1.07321 132.483L4.06183 132.222ZM0.681427 126.649C0.642059 125.822 1.28098 125.119 2.10846 125.08C2.93597 125.04 3.63867 125.679 3.67804 126.507L0.681427 126.649ZM3.52448 121.73C3.53867 122.558 2.87872 123.241 2.05042 123.256C1.22211 123.27 0.539124 122.61 0.524933 121.782L3.52448 121.73ZM0.500092 118.861C0.500092 117.863 0.516541 116.867 0.549316 115.874L3.54767 115.973C3.51599 116.933 3.50009 117.895 3.50009 118.861H0.500092ZM0.850739 110.912C1.02701 108.923 1.26923 106.948 1.57632 104.987L4.54022 105.451C4.24344 107.346 4.00937 109.255 3.83902 111.177L0.850739 110.912ZM2.4823 100.096C2.89908 98.1505 3.3804 96.2201 3.92511 94.3062L6.81052 95.1275C6.28384 96.9779 5.81857 98.844 5.41574 100.725L2.4823 100.096ZM5.41602 89.5637C6.06219 87.6877 6.77014 85.8293 7.53876 83.9895L10.3069 85.146C9.56271 86.9273 8.87756 88.7259 8.25244 90.5407L5.41602 89.5637ZM9.57339 79.4558C10.4293 77.6736 11.3431 75.9105 12.3138 74.1676L14.9348 75.6273C13.9931 77.3181 13.1071 79.0275 12.2777 80.7545L9.57339 79.4558ZM14.8345 69.8913C15.8775 68.2161 16.9742 66.5611 18.1236 64.9274L20.5771 66.6537C19.4597 68.242 18.3941 69.8501 17.3813 71.4768L14.8345 69.8913ZM21.0663 60.9398C22.2701 59.3827 23.523 57.8466 24.8243 56.3323L27.0996 58.2876C25.8315 59.7632 24.6113 61.2592 23.4397 62.7747L21.0663 60.9398ZM28.1307 52.6429C29.4718 51.2069 30.8578 49.7921 32.2879 48.3996L34.3808 50.5489C32.9843 51.9089 31.6315 53.2897 30.3232 54.6906L28.1307 52.6429ZM35.8961 45.0173C37.3521 43.703 38.8488 42.4101 40.3853 41.1395L42.2971 43.4515C40.7934 44.6949 39.3296 45.9594 37.9063 47.2442L35.8961 45.0173ZM44.249 38.0564C45.8029 36.8596 47.3938 35.6843 49.0209 34.5311L50.7556 36.9788C49.1603 38.1093 47.6015 39.261 46.0796 40.4332L44.249 38.0564ZM53.0961 31.7398C54.7283 30.6593 56.394 29.6 58.0925 28.5627L59.6561 31.123C57.9883 32.1415 56.3535 33.1812 54.7522 34.2413L53.0961 31.7398ZM62.3411 26.053C64.0397 25.0826 65.7686 24.1333 67.5273 23.2057L68.9269 25.8593C67.1976 26.7714 65.4982 27.7044 63.8293 28.6579L62.3411 26.053ZM71.9202 20.9645C73.6744 20.0991 75.4561 19.2545 77.265 18.4312L78.5078 21.1618C76.7269 21.9722 74.9734 22.8035 73.2476 23.6549L71.9202 20.9645ZM81.7764 16.4464C82.6826 16.0612 83.5952 15.6811 84.5142 15.3063L85.6471 18.0841C84.7417 18.4534 83.8427 18.8278 82.9501 19.2073L81.7764 16.4464ZM84.5142 15.3063C85.4698 14.9165 86.4318 14.5351 87.3999 14.1619L88.4789 16.9611C87.5287 17.3274 86.5847 17.7017 85.6471 18.0841L84.5142 15.3063ZM92.2562 12.377C94.1967 11.6978 96.161 11.05 98.1492 10.4329L99.0384 13.2981C97.0837 13.9048 95.1534 14.5414 93.2473 15.2086L92.2562 12.377ZM103.108 8.97137C105.085 8.41872 107.085 7.89493 109.107 7.39948L109.821 10.3133C107.829 10.8012 105.861 11.3169 103.915 11.8606L103.108 8.97137ZM114.139 6.23508C116.142 5.79812 118.167 5.38755 120.213 5.0029L120.767 7.95125C118.749 8.33068 116.753 8.73551 114.778 9.16616L114.139 6.23508ZM125.295 4.10775C127.316 3.77523 129.357 3.46676 131.418 3.18192L131.828 6.15368C129.792 6.43508 127.777 6.7397 125.782 7.06795L125.295 4.10775ZM136.532 2.52823C138.564 2.28914 140.615 2.07196 142.685 1.87627L142.968 4.86296C140.92 5.05655 138.891 5.27133 136.882 5.50768L136.532 2.52823ZM147.819 1.4378C149.858 1.2819 151.914 1.14593 153.989 1.02952L154.157 4.02481C152.102 4.14011 150.066 4.27475 148.048 4.42907L147.819 1.4378ZM159.133 0.782192C161.176 0.700136 163.234 0.636229 165.31 0.59014L165.377 3.5894C163.318 3.6351 161.278 3.69846 159.254 3.77977L159.133 0.782192ZM170.461 0.512438C171.486 0.504133 172.516 0.5 173.549 0.5V3.5C172.524 3.5 171.502 3.5041 170.485 3.51234L170.461 0.512438ZM173.549 0.5C174.567 0.5 175.584 0.504431 176.599 0.513279L176.573 3.51317C175.566 3.50439 174.558 3.5 173.549 3.5V0.5ZM181.669 0.594267C183.703 0.641574 185.732 0.706636 187.757 0.789343L187.634 3.78684C185.628 3.70485 183.616 3.64035 181.599 3.59346L181.669 0.594267ZM192.815 1.03332C194.849 1.14648 196.877 1.27753 198.898 1.42635L198.678 4.41825C196.675 4.27075 194.665 4.14085 192.648 4.02869L192.815 1.03332ZM203.951 1.83656C205.979 2.01662 207.999 2.21467 210.012 2.43061L209.691 5.41349C207.697 5.19951 205.695 5.00325 203.686 4.8248L203.951 1.83656ZM215.055 3.01133C217.073 3.25959 219.082 3.526 221.082 3.81042L220.659 6.78053C218.679 6.49878 216.688 6.23485 214.689 5.98888L215.055 3.01133ZM226.111 4.56707C228.122 4.88616 230.122 5.22368 232.111 5.5795L231.583 8.53262C229.614 8.18028 227.633 7.84603 225.641 7.53L226.111 4.56707ZM237.103 6.51556C239.105 6.90837 241.095 7.31999 243.071 7.75028L242.433 10.6816C240.477 10.2557 238.507 9.8483 236.526 9.45941L237.103 6.51556ZM248.011 8.87099C250.001 9.3409 251.976 9.83007 253.937 10.3383L253.184 13.2423C251.245 12.7396 249.29 12.2556 247.321 11.7907L248.011 8.87099ZM258.836 11.6571C260.802 12.206 262.752 12.7745 264.684 13.3625L263.811 16.2326C261.901 15.6514 259.974 15.0893 258.03 14.5466L258.836 11.6571ZM269.54 14.8927C271.481 15.5259 273.403 16.1792 275.306 16.8525L274.305 19.6807C272.426 19.0158 270.527 18.3704 268.609 17.7448L269.54 14.8927ZM280.082 18.6001C281.998 19.3246 283.892 20.07 285.764 20.8361L284.628 23.6126C282.781 22.8568 280.912 22.1213 279.021 21.4061L280.082 18.6001ZM290.436 22.8115C292.315 23.632 294.17 24.4741 295.999 25.3378L294.719 28.0506C292.916 27.1998 291.088 26.3698 289.236 25.5608L290.436 22.8115ZM300.58 27.5723C302.41 28.4942 304.212 29.4385 305.985 30.4051L304.55 33.0392C302.805 32.0884 301.032 31.1591 299.23 30.2514L300.58 27.5723ZM310.421 32.904C312.197 33.9388 313.943 34.9972 315.655 36.0789L314.053 38.6153C312.372 37.5533 310.657 36.5135 308.911 35.4964L310.421 32.904ZM319.92 38.867C321.62 40.0176 323.284 41.1926 324.911 42.3919L323.132 44.8069C321.537 43.632 319.906 42.4801 318.238 41.3515L319.92 38.867ZM328.972 45.4968C330.586 46.7771 332.159 48.0831 333.69 49.4146L331.721 51.678C330.225 50.3769 328.687 49.0998 327.108 47.847L328.972 45.4968ZM337.475 52.8419C338.973 54.2539 340.425 55.6927 341.829 57.1579L339.663 59.2334C338.295 57.8058 336.879 56.4028 335.417 55.0249L337.475 52.8419ZM345.287 60.9321C346.646 62.4841 347.952 64.0638 349.205 65.6711L346.838 67.5151C345.622 65.9539 344.352 64.4182 343.03 62.9081L345.287 60.9321ZM352.254 69.7912C353.437 71.4775 354.563 73.1922 355.628 74.9348L353.069 76.4999C352.037 74.8121 350.946 73.1502 349.798 71.5145L352.254 69.7912ZM358.183 79.3808C359.159 81.1929 360.072 83.0334 360.919 84.9018L358.187 86.1409C357.368 84.3355 356.486 82.5562 355.542 80.8033L358.183 79.3808ZM362.904 89.6408C363.641 91.556 364.311 93.4986 364.911 95.4684L362.042 96.3435C361.462 94.4425 360.816 92.5673 360.104 90.7182L362.904 89.6408ZM366.262 100.424C366.74 102.413 367.149 104.427 367.487 106.467L364.528 106.958C364.201 104.989 363.806 103.045 363.345 101.126L366.262 100.424ZM368.178 111.57C368.392 113.594 368.537 115.641 368.611 117.711L365.613 117.819C365.541 115.818 365.401 113.84 365.195 111.885L368.178 111.57ZM368.652 122.831C368.631 123.859 368.594 124.893 368.539 125.932L365.543 125.775C365.596 124.768 365.633 123.767 365.652 122.772L368.652 122.831ZM368.539 125.932C368.483 127 368.422 128.053 368.356 129.092L365.362 128.901C365.427 127.874 365.488 126.832 365.543 125.775L368.539 125.932ZM367.969 134.316C367.786 136.477 367.578 138.573 367.343 140.608L364.363 140.264C364.594 138.261 364.799 136.195 364.98 134.063L367.969 134.316ZM366.663 145.818C366.349 147.971 365.999 150.052 365.614 152.066L362.667 151.502C363.044 149.534 363.386 147.496 363.695 145.384L366.663 145.818ZM364.511 157.226C364.008 159.346 363.458 161.389 362.858 163.361L359.988 162.487C360.569 160.579 361.103 158.597 361.592 156.534L364.511 157.226ZM361.16 168.396C360.401 170.433 359.579 172.392 358.691 174.281L355.976 173.005C356.827 171.194 357.617 169.312 358.348 167.349L361.16 168.396ZM356.243 179.019C355.183 180.891 354.047 182.692 352.832 184.434L350.372 182.717C351.533 181.052 352.619 179.331 353.632 177.541L356.243 179.019ZM349.613 188.686C348.274 190.321 346.855 191.904 345.353 193.448L343.203 191.356C344.648 189.871 346.01 188.351 347.292 186.785L349.613 188.686ZM341.529 197.136C339.989 198.532 338.374 199.901 336.681 201.251L334.811 198.906C336.458 197.592 338.024 196.264 339.514 194.913L341.529 197.136ZM332.485 204.448C330.824 205.66 329.095 206.863 327.298 208.063L325.632 205.569C327.398 204.389 329.092 203.21 330.717 202.025L332.485 204.448ZM322.878 210.926C321.999 211.48 321.104 212.034 320.195 212.59L318.631 210.03C319.53 209.481 320.413 208.933 321.28 208.387L322.878 210.926ZM320.58 210.368C321.178 211.108 321.78 211.852 322.386 212.598L320.058 214.49C319.449 213.741 318.845 212.995 318.245 212.252L320.58 210.368ZM325.415 216.301C326.621 217.766 327.843 219.241 329.082 220.725L326.78 222.648C325.536 221.159 324.309 219.678 323.098 218.207L325.415 216.301ZM332.159 224.387C333.386 225.838 334.628 227.297 335.884 228.761L333.607 230.715C332.346 229.245 331.1 227.781 329.868 226.323L332.159 224.387ZM339.01 232.383C340.258 233.82 341.519 235.262 342.793 236.707L340.542 238.691C339.263 237.24 337.998 235.793 336.745 234.35L339.01 232.383ZM345.967 240.287C347.236 241.709 348.516 243.133 349.808 244.559L347.585 246.573C346.288 245.142 345.002 243.712 343.728 242.284L345.967 240.287ZM353.031 248.094C354.32 249.5 355.62 250.906 356.93 252.311L354.735 254.356C353.42 252.945 352.115 251.534 350.82 250.122L353.031 248.094ZM360.204 255.801C361.515 257.188 362.835 258.575 364.163 259.959L361.999 262.036C360.665 260.646 359.339 259.254 358.023 257.86L360.204 255.801ZM367.489 263.4C368.822 264.768 370.163 266.134 371.511 267.496L369.379 269.607C368.025 268.239 366.678 266.867 365.34 265.492L367.489 263.4ZM374.89 270.883C376.245 272.231 377.608 273.575 378.978 274.913L376.881 277.059C375.505 275.714 374.136 274.364 372.774 273.009L374.89 270.883ZM382.412 278.242C383.791 279.569 385.177 280.888 386.569 282.2L384.51 284.383C383.111 283.064 381.719 281.738 380.333 280.405L382.412 278.242ZM390.062 285.467C391.466 286.769 392.875 288.062 394.29 289.346L392.273 291.567C390.851 290.276 389.434 288.976 388.022 287.667L390.062 285.467ZM397.845 292.544C398.559 293.18 399.275 293.814 399.992 294.446L398.008 296.697C397.288 296.061 396.568 295.424 395.849 294.783L397.845 292.544ZM398.118 296.784C397.529 296.356 396.743 295.801 395.765 295.119L397.482 292.659C398.463 293.343 399.268 293.912 399.882 294.358L398.118 296.784ZM391.783 292.364C391.034 291.848 390.234 291.298 389.384 290.713L391.085 288.242C391.934 288.826 392.735 289.377 393.484 289.893L391.783 292.364ZM389.384 290.713C388.577 290.158 387.725 289.572 386.831 288.956L388.532 286.485C389.426 287.1 390.278 287.686 391.085 288.242L389.384 290.713ZM382.546 286.001C380.94 284.891 379.233 283.71 377.43 282.457L379.142 279.993C380.942 281.244 382.647 282.424 384.251 283.532L382.546 286.001ZM373.165 279.487C371.527 278.344 369.824 277.151 368.06 275.911L369.785 273.457C371.547 274.695 373.247 275.886 374.882 277.027L373.165 279.487ZM363.803 272.912C362.156 271.748 360.461 270.546 358.722 269.309L360.462 266.865C362.198 268.1 363.889 269.299 365.535 270.462L363.803 272.912ZM354.497 266.294C352.842 265.109 351.151 263.895 349.426 262.652L351.18 260.218C352.902 261.459 354.59 262.672 356.243 263.855L354.497 266.294ZM345.223 259.614C343.568 258.414 341.885 257.189 340.175 255.941L341.944 253.518C343.651 254.764 345.331 255.987 346.984 257.185L345.223 259.614ZM335.988 252.874C334.338 251.662 332.665 250.429 330.97 249.175L332.755 246.763C334.446 248.015 336.116 249.246 337.764 250.456L335.988 252.874ZM326.794 246.075C325.149 244.85 323.485 243.607 321.804 242.347L323.604 239.947C325.282 241.205 326.943 242.446 328.585 243.669L326.794 246.075ZM317.653 239.223C316.01 237.984 314.352 236.728 312.679 235.456L314.495 233.068C316.165 234.337 317.82 235.591 319.46 236.829L317.653 239.223ZM308.545 232.303C306.911 231.053 305.264 229.788 303.605 228.508L305.437 226.133C307.093 227.409 308.737 228.672 310.368 229.92L308.545 232.303ZM299.496 225.33C298.676 224.694 297.854 224.055 297.029 223.412L298.873 221.045C299.696 221.687 300.517 222.325 301.335 222.96L299.496 225.33ZM298.506 223.622C297.516 224.016 296.515 224.401 295.505 224.777L294.459 221.965C295.448 221.597 296.428 221.221 297.396 220.835L298.506 223.622ZM290.447 226.554C288.439 227.22 286.392 227.852 284.306 228.45L283.479 225.567C285.527 224.979 287.535 224.359 289.503 223.707L290.447 226.554ZM279.136 229.845C277.089 230.363 275.007 230.851 272.887 231.309L272.254 228.377C274.34 227.926 276.388 227.446 278.4 226.937L279.136 229.845ZM267.645 232.366C265.572 232.755 263.466 233.117 261.326 233.451L260.862 230.487C262.973 230.157 265.05 229.801 267.092 229.417L267.645 232.366ZM256.039 234.213C253.949 234.489 251.828 234.741 249.676 234.968L249.361 231.985C251.488 231.76 253.583 231.512 255.646 231.239L256.039 234.213ZM244.364 235.473C242.264 235.652 240.135 235.808 237.978 235.941L237.792 232.947C239.928 232.815 242.033 232.66 244.11 232.484L244.364 235.473ZM232.652 236.224C230.548 236.317 228.418 236.389 226.26 236.442L226.187 233.443C228.325 233.391 230.436 233.319 232.52 233.226L232.652 236.224ZM220.93 236.53C219.871 236.539 218.805 236.544 217.732 236.544V233.544C218.796 233.544 219.853 233.539 220.904 233.53L220.93 236.53ZM217.872 236.537C216.878 236.63 215.885 236.72 214.895 236.807L214.633 233.818C215.617 233.732 216.604 233.643 217.592 233.55L217.872 236.537ZM209.952 237.214C207.962 237.368 205.982 237.508 204.012 237.635L203.819 234.641C205.776 234.515 207.743 234.375 209.721 234.223L209.952 237.214ZM199.048 237.928C197.052 238.035 195.067 238.128 193.094 238.208L192.972 235.21C194.933 235.131 196.905 235.038 198.888 234.932L199.048 237.928ZM188.129 238.381C186.131 238.44 184.145 238.484 182.172 238.515L182.125 235.515C184.085 235.485 186.057 235.44 188.042 235.382L188.129 238.381ZM177.211 238.563C175.211 238.57 173.225 238.564 171.252 238.543L171.284 235.543C173.242 235.564 175.214 235.57 177.199 235.563L177.211 238.563ZM166.279 238.46C164.278 238.414 162.291 238.353 160.319 238.278L160.433 235.28C162.39 235.355 164.362 235.415 166.348 235.46L166.279 238.46ZM155.351 238.057C153.351 237.954 151.366 237.837 149.398 237.704L149.599 234.711C151.551 234.842 153.52 234.959 155.504 235.06L155.351 238.057ZM144.441 237.336C142.443 237.174 140.462 236.996 138.499 236.802L138.793 233.817C140.739 234.009 142.703 234.185 144.684 234.346L144.441 237.336ZM133.557 236.278C131.563 236.052 129.588 235.809 127.633 235.551L128.027 232.577C129.963 232.833 131.919 233.073 133.895 233.298L133.557 236.278ZM122.71 234.86C120.723 234.564 118.757 234.252 116.812 233.923L117.313 230.965C119.237 231.291 121.183 231.6 123.151 231.892L122.71 234.86ZM111.915 233.051C109.938 232.681 107.984 232.294 106.055 231.889L106.671 228.953C108.579 229.353 110.511 229.737 112.467 230.103L111.915 233.051ZM101.193 230.82C99.2297 230.369 97.2932 229.899 95.384 229.411L96.127 226.504C98.0123 226.986 99.9253 227.45 101.865 227.896L101.193 230.82ZM90.5709 228.126C88.628 227.585 86.7154 227.024 84.8337 226.444L85.7168 223.577C87.572 224.149 89.4585 224.702 91.3758 225.236L90.5709 228.126ZM80.0875 224.92C78.1733 224.28 76.2937 223.619 74.4493 222.938L75.4884 220.124C77.3032 220.794 79.1538 221.445 81.0393 222.075L80.0875 224.92ZM69.7875 221.144C67.9042 220.389 66.0608 219.612 64.2582 218.813L65.4735 216.07C67.2425 216.854 69.0529 217.617 70.904 218.359L69.7875 221.144ZM59.722 216.716C57.8946 215.835 56.1134 214.93 54.3795 214.003L55.7947 211.358C57.4904 212.265 59.2342 213.15 61.025 214.014L59.722 216.716ZM50.0036 211.554C49.1339 211.045 48.2776 210.53 47.4348 210.008L49.0133 207.457C49.8349 207.966 50.6702 208.468 51.5191 208.965L50.0036 211.554ZM47.4348 210.008C46.5944 209.488 45.7675 208.962 44.9539 208.43L46.596 205.919C47.3883 206.438 48.1941 206.95 49.0133 207.457L47.4348 210.008ZM40.9271 205.671C39.3099 204.509 37.7506 203.322 36.2476 202.11L38.1305 199.775C39.5895 200.951 41.1044 202.104 42.6771 203.234L40.9271 205.671ZM32.5157 198.95C31.0302 197.627 29.606 196.279 28.2412 194.905L30.3695 192.791C31.6906 194.121 33.0702 195.427 34.5103 196.709L32.5157 198.95ZM24.8828 191.341C23.5605 189.861 22.3017 188.355 21.104 186.824L23.4669 184.976C24.6243 186.455 25.8413 187.911 27.1201 189.343L24.8828 191.341ZM18.1893 182.879C17.0593 181.257 15.9925 179.611 14.9866 177.941L17.5562 176.393C18.5282 178.006 19.5589 179.597 20.6506 181.163L18.1893 182.879ZM12.5704 173.669C11.6483 171.93 10.7873 170.167 9.98456 168.384L12.7202 167.153C13.4969 168.878 14.3297 170.583 15.2211 172.264L12.5704 173.669ZM8.09006 163.864C7.37906 162.037 6.72482 160.19 6.12463 158.325L8.98035 157.406C9.56274 159.216 10.1971 161.006 10.8859 162.776L8.09006 163.864ZM4.73633 153.632C4.2262 151.746 3.76736 149.844 3.35709 147.928L6.29062 147.3C6.69009 149.166 7.13647 151.016 7.63223 152.849L4.73633 153.632ZM2.43503 143.131C2.10684 141.211 1.82397 139.279 1.58374 137.335L4.5611 136.967C4.79584 138.867 5.07202 140.753 5.39209 142.625L2.43503 143.131ZM1.07321 132.483C0.904114 130.548 0.774353 128.603 0.681427 126.649L3.67804 126.507C3.76917 128.423 3.8963 130.328 4.06183 132.222L1.07321 132.483ZM0.524933 121.782C0.50827 120.81 0.500092 119.836 0.500092 118.861H3.50009C3.50009 119.819 3.50812 120.776 3.52448 121.73L0.524933 121.782Z" fill="black"/>
</svg>
